<svg width="721" height="240" viewBox="0 0 721 240" fill="none" xmlns="http://www.w3.org/2000/svg">
<path d="M557.901 152.524C551.277 152.524 545.307 151.134 539.991 148.354C534.758 145.491 530.669 141.525 527.725 136.455C524.781 131.384 523.309 125.66 523.309 119.281C523.309 112.902 524.699 107.341 527.479 102.598C530.342 97.7734 534.185 94.0933 539.01 91.5582C543.917 88.9413 549.396 87.6328 555.448 87.6328C561.009 87.6328 566.079 88.9004 570.658 91.4355C575.238 93.8889 578.877 97.4054 581.576 101.985C584.275 106.483 585.624 111.635 585.624 117.441C585.624 121.121 585.501 123.861 585.256 125.66H542.813C543.712 129.095 545.389 131.834 547.842 133.879C550.296 135.841 553.24 136.823 556.674 136.823C559.209 136.823 561.622 136.25 563.912 135.105C566.283 133.96 567.919 132.734 568.818 131.425L581.699 141.852C579.654 144.714 576.506 147.209 572.253 149.335C568.082 151.461 563.298 152.524 557.901 152.524ZM567.837 113.025C567.346 109.999 565.997 107.423 563.789 105.297C561.663 103.171 558.841 102.108 555.325 102.108C551.972 102.108 549.232 103.089 547.106 105.052C544.98 107.014 543.508 109.672 542.69 113.025H567.837Z" fill="white"/>
<path d="M492.125 172.151C485.991 172.151 480.717 170.72 476.301 167.858C471.884 165.077 468.532 161.847 466.242 158.167C464.034 154.487 462.93 151.502 462.93 149.212L481.821 143.447C481.821 146.636 482.679 149.621 484.397 152.402C486.196 155.264 488.935 156.695 492.615 156.695C495.559 156.695 497.849 155.795 499.485 153.996C501.12 152.197 501.938 150.112 501.938 147.74C501.938 144.96 500.916 142.711 498.871 140.993C496.827 139.194 494.169 138.295 490.898 138.295C485.91 138.295 481.289 137.232 477.037 135.105C472.784 132.897 469.39 129.872 466.855 126.028C464.402 122.184 463.175 117.809 463.175 112.902C463.175 107.75 464.524 103.253 467.223 99.4089C470.004 95.5653 473.561 92.6622 477.895 90.6995C482.229 88.655 486.645 87.6328 491.143 87.6328C493.351 87.6328 495.682 87.8781 498.135 88.3688C500.589 88.8595 502.756 89.5137 504.637 90.3315H521.85V105.91H515.186C515.759 106.728 516.372 108.077 517.026 109.958C517.762 111.839 518.13 113.884 518.13 116.092C518.13 119.608 517.149 122.634 515.186 125.169C513.305 127.704 511.22 129.299 508.93 129.953C511.956 131.098 514.859 133.265 517.64 136.455C520.502 139.644 521.933 143.733 521.933 148.722C521.933 153.71 520.461 157.963 517.517 161.479C514.573 165.077 510.811 167.735 506.232 169.452C501.652 171.252 496.95 172.151 492.125 172.151ZM491.021 123.697C493.801 123.697 496.132 122.757 498.013 120.876C499.975 118.913 500.957 116.296 500.957 113.025C500.957 109.836 500.016 107.301 498.135 105.42C496.336 103.457 494.046 102.476 491.266 102.476C488.404 102.476 485.991 103.457 484.029 105.42C482.066 107.382 481.085 109.958 481.085 113.148C481.085 116.255 482.066 118.791 484.029 120.753C485.991 122.716 488.322 123.697 491.021 123.697Z" fill="white"/>
<path d="M420.787 151.916C416.698 151.916 412.609 150.771 408.52 148.481C404.431 146.11 400.996 142.552 398.216 137.809C395.517 132.984 394.168 127.137 394.168 120.268C394.168 112.58 395.517 106.324 398.216 101.499C400.996 96.6745 404.349 93.2398 408.275 91.1953C412.282 89.069 416.207 88.0059 420.051 88.0059C423.976 88.0059 427.615 88.9464 430.968 90.8273C434.321 92.7082 436.57 94.5482 437.715 96.3474V67.1523H458.814V136.95C458.814 139.486 458.896 142.062 459.059 144.679C459.223 147.295 459.468 149.258 459.795 150.567H439.923L438.574 143.575C437.429 145.455 435.221 147.336 431.95 149.217C428.679 151.016 424.958 151.916 420.787 151.916ZM427.043 136.46C430.723 136.46 433.585 134.783 435.63 131.43C437.674 127.996 438.696 124.111 438.696 119.777C438.696 115.361 437.674 111.436 435.63 108.001C433.585 104.566 430.723 102.849 427.043 102.849C423.281 102.849 420.378 104.566 418.334 108.001C416.289 111.436 415.267 115.361 415.267 119.777C415.267 124.111 416.289 127.996 418.334 131.43C420.46 134.783 423.363 136.46 427.043 136.46Z" fill="white"/>
<path d="M362.667 152.524C356.043 152.524 350.073 151.134 344.757 148.354C339.523 145.491 335.434 141.525 332.49 136.455C329.546 131.384 328.074 125.66 328.074 119.281C328.074 112.902 329.464 107.341 332.245 102.598C335.107 97.7734 338.951 94.0933 343.776 91.5582C348.682 88.9413 354.162 87.6328 360.213 87.6328C365.774 87.6328 370.844 88.9004 375.424 91.4355C380.004 93.8889 383.643 97.4054 386.342 101.985C389.04 106.483 390.39 111.635 390.39 117.441C390.39 121.121 390.267 123.861 390.022 125.66H347.578C348.478 129.095 350.154 131.834 352.608 133.879C355.061 135.841 358.005 136.823 361.44 136.823C363.975 136.823 366.388 136.25 368.677 135.105C371.049 133.96 372.685 132.734 373.584 131.425L386.464 141.852C384.42 144.714 381.271 147.209 377.019 149.335C372.848 151.461 368.064 152.524 362.667 152.524ZM372.603 113.025C372.112 109.999 370.763 107.423 368.555 105.297C366.428 103.171 363.607 102.108 360.091 102.108C356.738 102.108 353.998 103.089 351.872 105.052C349.746 107.014 348.274 109.672 347.456 113.025H372.603Z" fill="white"/>
<path d="M323.521 67.1523V150.567H302.422V67.1523H323.521Z" fill="white"/>
<path d="M198.746 89.7305H218.25L226.96 134.014L235.915 89.7305H261.797L270.752 134.014L279.339 89.7305H298.598L284.614 150.574H257.995L248.917 108.131L239.963 150.574H213.466L198.746 89.7305Z" fill="white"/>
<path d="M167.752 152.524C161.619 152.524 156.058 151.093 151.07 148.231C146.081 145.369 142.156 141.443 139.293 136.455C136.431 131.466 135 125.905 135 119.772C135 113.638 136.39 108.159 139.171 103.334C142.033 98.4276 145.958 94.584 150.947 91.8035C155.935 89.0231 161.537 87.6328 167.752 87.6328C173.886 87.6328 179.447 89.0231 184.435 91.8035C189.506 94.584 193.472 98.4276 196.334 103.334C199.278 108.159 200.75 113.638 200.75 119.772C200.75 125.905 199.278 131.466 196.334 136.455C193.472 141.443 189.506 145.369 184.435 148.231C179.447 151.093 173.886 152.524 167.752 152.524ZM167.752 136.823C171.596 136.823 174.54 135.064 176.584 131.548C178.711 128.032 179.774 124.065 179.774 119.649C179.774 115.397 178.711 111.635 176.584 108.364C174.54 105.011 171.596 103.334 167.752 103.334C163.909 103.334 160.965 105.011 158.92 108.364C156.958 111.635 155.976 115.397 155.976 119.649C155.976 124.065 156.958 128.032 158.92 131.548C160.965 135.064 163.909 136.823 167.752 136.823Z" fill="white"/>
<path d="M69.8398 89.597H90.9388V98.9198C92.329 96.3846 94.8641 93.9722 98.5442 91.6824C102.224 89.3108 106.436 88.125 111.179 88.125C117.312 88.125 122.096 90.0877 125.531 94.0131C128.966 97.8567 130.683 103.05 130.683 109.592V150.563H109.707V116.093C109.707 112.332 109.135 109.551 107.99 107.752C106.845 105.871 104.8 104.931 101.856 104.931C98.5851 104.931 95.9273 106.239 93.8828 108.856C91.9201 111.391 90.9388 114.662 90.9388 118.669V150.563H69.8398V89.597Z" fill="white"/>
<path d="M0 67.1523H21.2216V114.748L39.3765 89.7233H63.9101L41.2165 118.796L65.6274 150.567H40.8485L21.2216 122.721V150.567H0V67.1523Z" fill="white"/>
<path d="M683.982 154.968C677.569 154.968 671.813 153.775 666.716 151.391C661.618 148.924 657.589 145.512 654.629 141.155C651.751 136.715 650.312 131.658 650.312 125.985C650.312 122.531 651.217 118.996 653.026 115.378C654.917 111.678 658.247 106.169 663.016 98.8518L682.379 69.1289H707.045L683.612 100.702C686.325 99.8796 689.039 99.4685 691.752 99.4685C696.932 99.4685 701.577 100.578 705.688 102.798C709.799 105.018 713.006 108.102 715.308 112.048C717.693 115.995 718.885 120.476 718.885 125.491C718.885 131.411 717.24 136.632 713.952 141.155C710.745 145.594 706.469 149.007 701.125 151.391C695.863 153.775 690.149 154.968 683.982 154.968ZM684.352 138.195C687.888 138.195 690.806 137.043 693.109 134.741C695.493 132.357 696.685 129.315 696.685 125.615C696.685 121.915 695.493 118.914 693.109 116.612C690.806 114.227 687.888 113.035 684.352 113.035C680.899 113.035 678.021 114.227 675.719 116.612C673.417 118.914 672.266 121.915 672.266 125.615C672.266 129.315 673.417 132.357 675.719 134.741C678.021 137.043 680.899 138.195 684.352 138.195Z" fill="#63DF4E"/>
<path d="M590.435 137.451L615.348 113.032C619.377 109.085 622.254 105.714 623.981 102.918C625.708 100.123 626.571 97.3275 626.571 94.5319C626.571 91.6542 625.749 89.3109 624.104 87.5021C622.46 85.6932 620.199 84.7888 617.321 84.7888C613.95 84.7888 611.36 86.1043 609.551 88.7354C607.742 91.2842 606.838 94.4086 606.838 98.1086C606.838 98.7663 606.92 99.753 607.085 101.069L585.995 99.4652C585.748 97.8208 585.625 96.2997 585.625 94.9019C585.625 89.3931 587.023 84.5421 589.818 80.3488C592.614 76.0733 596.437 72.8256 601.288 70.6056C606.139 68.3034 611.566 67.1523 617.568 67.1523C623.488 67.1523 628.791 68.2623 633.478 70.4823C638.164 72.62 641.823 75.6622 644.454 79.6088C647.085 83.4732 648.401 87.8309 648.401 92.682C648.401 97.533 647.085 102.096 644.454 106.372C641.905 110.647 638.123 115.293 633.108 120.308L618.801 134.491H648.154V152.991H590.435V137.451Z" fill="#63DF4E"/>
</svg>
